<?xml version="1.0" encoding="utf-8"?>
<!-- Generator: Adobe Illustrator 19.1.0, SVG Export Plug-In . SVG Version: 6.00 Build 0)  -->
<svg version="1.1" id="Layer_1" xmlns="http://www.w3.org/2000/svg" xmlns:xlink="http://www.w3.org/1999/xlink" x="0px" y="0px"
	 viewBox="-281 385 48 24" style="enable-background:new -281 385 48 24;" xml:space="preserve">
<style type="text/css">
	.st0{fill:#A5D000;}
	.st1{fill:#CCCCCC;}
</style>
<path class="st0" d="M-235.8,394l-5.5-0.5c-0.3,0-0.6-0.3-0.8-0.6l-2-4.8c-0.3-0.8-1.4-0.8-1.8,0l-2,4.8c-0.1,0.3-0.4,0.6-0.8,0.6
	l-5.5,0.5c-0.8,0.1-1.2,1.1-0.5,1.7l4.1,3.6c0.3,0.2,0.4,0.6,0.3,0.9l-1.2,5.1c-0.2,0.8,0.7,1.5,1.4,1l4.6-2.7c0.3-0.2,0.7-0.2,1,0
	l4.6,2.7c0.7,0.4,1.6-0.2,1.4-1l-1.2-5.1c-0.1-0.3,0-0.7,0.3-0.9l4.1-3.6C-234.6,395.1-235,394.1-235.8,394L-235.8,394z"/>
<path class="st1" d="M-259.8,394l-5.5-0.5c-0.3,0-0.6-0.3-0.8-0.6l-2-4.8c-0.3-0.8-1.4-0.8-1.8,0l-2,4.8c-0.1,0.3-0.4,0.6-0.8,0.6
	l-5.5,0.5c-0.8,0.1-1.1,1.1-0.5,1.7l4.1,3.6c0.3,0.2,0.4,0.6,0.3,0.9l-1.2,5.1c-0.2,0.8,0.7,1.5,1.4,1l4.6-2.7c0.3-0.2,0.7-0.2,1,0
	l4.6,2.7c0.7,0.4,1.6-0.2,1.4-1l-1.2-5.1c-0.1-0.3,0-0.7,0.3-0.9l4.1-3.6C-258.7,395.1-259,394.1-259.8,394L-259.8,394z"/>
</svg>
